<svg xmlns="http://www.w3.org/2000/svg" width="17" height="17" fill="none"><path fill="#E1937D" d="m11.084 9.57 2.25 1.662c.55.408.775 1.123.545 1.736l-.248.66-.66.247c-.612.23-1.327.005-1.735-.545l-1.662-2.25.412 2.768c.103.677-.245 1.342-.842 1.612l-.64.29-.64-.29c-.598-.27-.945-.935-.843-1.613l.413-2.767-1.663 2.25c-.407.55-1.122.775-1.735.545l-.66-.248-.247-.66c-.23-.612-.005-1.327.545-1.735l2.25-1.662-2.768.412c-.677.103-1.342-.244-1.612-.842l-.29-.64.29-.64c.27-.598.935-.945 1.612-.843l2.768.413-2.25-1.662c-.55-.408-.775-1.123-.545-1.736l.247-.66.66-.247c.613-.23 1.328-.005 1.735.545l1.663 2.25-.413-2.768c-.102-.677.245-1.342.843-1.612l.64-.29.64.29c.597.27.945.935.842 1.612L9.574 5.92l1.662-2.25c.408-.55 1.123-.775 1.735-.545l.66.248.248.66c.23.612.005 1.327-.545 1.734l-2.25 1.663 2.767-.412c.678-.103 1.343.245 1.613.842l.29.64-.29.64c-.27.598-.935.945-1.613.842l-2.767-.412Z"/><path fill="#E1937D" d="M9.004 6.5c0 .275-.5.75-.5.75s-.5-.475-.5-.75.5-2.25.5-2.25.5 1.975.5 2.25Zm-1.56.233c.195.195.178.885.178.885s-.688.017-.885-.178c-.198-.195-1.238-1.945-1.238-1.945s1.75 1.043 1.945 1.238ZM6.504 8c.275 0 .75.5.75.5s-.475.5-.75.5-2.25-.5-2.25-.5S6.229 8 6.504 8Zm.233 1.56c.195-.195.885-.178.885-.178s.017.688-.178.885c-.195.198-1.945 1.238-1.945 1.238s1.043-1.75 1.238-1.945Zm1.267.94c0-.275.5-.75.5-.75s.5.475.5.75-.5 2.25-.5 2.25-.5-1.975-.5-2.25Zm1.56-.233c-.195-.195-.178-.885-.178-.885s.688-.017.885.178c.198.195 1.238 1.945 1.238 1.945s-1.75-1.043-1.945-1.238ZM10.504 9c-.275 0-.75-.5-.75-.5s.475-.5.75-.5 2.25.5 2.25.5-1.975.5-2.25.5Zm-.233-1.56c-.195.195-.885.178-.885.178s-.017-.688.178-.885c.195-.198 1.945-1.238 1.945-1.238s-1.043 1.75-1.238 1.945ZM8.504 9.5a1 1 0 1 0 0-2 1 1 0 0 0 0 2Z"/></svg>